<mxfile host="65bd71144e">
    <diagram id="pS0QejiUJLAIlTwYem3M" name="Page-1">
        <mxGraphModel dx="1419" dy="814" grid="1" gridSize="10" guides="1" tooltips="1" connect="1" arrows="1" fold="1" page="1" pageScale="1" pageWidth="827" pageHeight="1169" background="#FFFFFF" math="0" shadow="0">
            <root>
                <mxCell id="0"/>
                <mxCell id="1" parent="0"/>
                <mxCell id="2" value="Pool" style="swimlane;childLayout=stackLayout;resizeParent=1;resizeParentMax=0;horizontal=1;startSize=20;horizontalStack=0;html=1;" parent="1" vertex="1">
                    <mxGeometry x="50" y="40" width="930" height="540" as="geometry"/>
                </mxCell>
                <mxCell id="4" value="Quill" style="swimlane;startSize=20;horizontal=0;html=1;" parent="2" vertex="1">
                    <mxGeometry y="20" width="930" height="180" as="geometry">
                        <mxRectangle y="20" width="930" height="30" as="alternateBounds"/>
                    </mxGeometry>
                </mxCell>
                <mxCell id="28" value="Container" style="rounded=1;whiteSpace=wrap;html=1;" parent="4" vertex="1">
                    <mxGeometry x="30" y="80" width="90" height="30" as="geometry"/>
                </mxCell>
                <mxCell id="29" value="Block" style="rounded=1;whiteSpace=wrap;html=1;" parent="4" vertex="1">
                    <mxGeometry x="130" y="80" width="90" height="30" as="geometry"/>
                </mxCell>
                <mxCell id="30" value="BlockEmbed" style="rounded=1;whiteSpace=wrap;html=1;" parent="4" vertex="1">
                    <mxGeometry x="630" y="80" width="90" height="30" as="geometry"/>
                </mxCell>
                <mxCell id="31" value="Break" style="rounded=1;whiteSpace=wrap;html=1;" parent="4" vertex="1">
                    <mxGeometry x="730" y="80" width="90" height="30" as="geometry"/>
                </mxCell>
                <mxCell id="32" value="Embed" style="rounded=1;whiteSpace=wrap;html=1;" parent="4" vertex="1">
                    <mxGeometry x="830" y="80" width="90" height="30" as="geometry"/>
                </mxCell>
                <mxCell id="33" value="Inline" style="rounded=1;whiteSpace=wrap;html=1;" parent="4" vertex="1">
                    <mxGeometry x="240" y="80" width="90" height="30" as="geometry"/>
                </mxCell>
                <mxCell id="34" value="Scroll" style="rounded=1;whiteSpace=wrap;html=1;" parent="4" vertex="1">
                    <mxGeometry x="350" y="80" width="90" height="30" as="geometry"/>
                </mxCell>
                <mxCell id="35" value="Text" style="rounded=1;whiteSpace=wrap;html=1;" parent="4" vertex="1">
                    <mxGeometry x="510" y="80" width="90" height="30" as="geometry"/>
                </mxCell>
                <mxCell id="5" value="Parchment" style="swimlane;startSize=20;horizontal=0;html=1;" parent="2" vertex="1">
                    <mxGeometry y="200" width="930" height="340" as="geometry">
                        <mxRectangle y="200" width="930" height="30" as="alternateBounds"/>
                    </mxGeometry>
                </mxCell>
                <mxCell id="8" value="" style="edgeStyle=none;html=1;exitX=0.5;exitY=0;exitDx=0;exitDy=0;entryX=0.5;entryY=1;entryDx=0;entryDy=0;" parent="5" source="6" target="7" edge="1">
                    <mxGeometry relative="1" as="geometry">
                        <Array as="points">
                            <mxPoint x="435" y="257"/>
                            <mxPoint x="225" y="257"/>
                        </Array>
                    </mxGeometry>
                </mxCell>
                <mxCell id="25" style="edgeStyle=none;html=1;entryX=0.5;entryY=1;entryDx=0;entryDy=0;exitX=0.5;exitY=0;exitDx=0;exitDy=0;" parent="5" source="6" target="9" edge="1">
                    <mxGeometry relative="1" as="geometry">
                        <Array as="points">
                            <mxPoint x="435" y="257"/>
                            <mxPoint x="625" y="257"/>
                        </Array>
                    </mxGeometry>
                </mxCell>
                <mxCell id="6" value="ShadowBlot" style="rounded=1;whiteSpace=wrap;html=1;" parent="5" vertex="1">
                    <mxGeometry x="390" y="292" width="90" height="30" as="geometry"/>
                </mxCell>
                <mxCell id="12" value="" style="edgeStyle=none;html=1;entryX=0.5;entryY=1;entryDx=0;entryDy=0;exitX=0.5;exitY=0;exitDx=0;exitDy=0;" parent="5" source="7" target="11" edge="1">
                    <mxGeometry relative="1" as="geometry">
                        <mxPoint x="140" y="107" as="targetPoint"/>
                        <Array as="points">
                            <mxPoint x="225" y="124"/>
                            <mxPoint x="75" y="124"/>
                        </Array>
                    </mxGeometry>
                </mxCell>
                <mxCell id="27" style="edgeStyle=none;html=1;entryX=0.5;entryY=1;entryDx=0;entryDy=0;exitX=0.5;exitY=0;exitDx=0;exitDy=0;" parent="5" source="7" target="23" edge="1">
                    <mxGeometry relative="1" as="geometry">
                        <Array as="points">
                            <mxPoint x="225" y="124"/>
                            <mxPoint x="395" y="124"/>
                        </Array>
                    </mxGeometry>
                </mxCell>
                <mxCell id="7" value="ParentBlot" style="rounded=1;whiteSpace=wrap;html=1;" parent="5" vertex="1">
                    <mxGeometry x="180" y="157" width="90" height="30" as="geometry"/>
                </mxCell>
                <mxCell id="19" value="" style="edgeStyle=none;html=1;entryX=0.5;entryY=1;entryDx=0;entryDy=0;" parent="5" source="9" target="22" edge="1">
                    <mxGeometry relative="1" as="geometry">
                        <mxPoint x="661.875" y="107" as="targetPoint"/>
                        <Array as="points">
                            <mxPoint x="625" y="124"/>
                            <mxPoint x="675" y="124"/>
                        </Array>
                    </mxGeometry>
                </mxCell>
                <mxCell id="26" style="edgeStyle=none;html=1;entryX=0.5;entryY=1;entryDx=0;entryDy=0;" parent="5" source="9" target="24" edge="1">
                    <mxGeometry relative="1" as="geometry">
                        <Array as="points">
                            <mxPoint x="625" y="124"/>
                            <mxPoint x="555" y="124"/>
                        </Array>
                    </mxGeometry>
                </mxCell>
                <mxCell id="9" value="LeafBlot" style="rounded=1;whiteSpace=wrap;html=1;" parent="5" vertex="1">
                    <mxGeometry x="580" y="157" width="90" height="30" as="geometry"/>
                </mxCell>
                <mxCell id="11" value="ContainerBlot" style="rounded=1;whiteSpace=wrap;html=1;" parent="5" vertex="1">
                    <mxGeometry x="30" y="23" width="90" height="30" as="geometry"/>
                </mxCell>
                <mxCell id="17" value="BlockBlot" style="rounded=1;whiteSpace=wrap;html=1;" parent="5" vertex="1">
                    <mxGeometry x="130" y="23" width="90" height="30" as="geometry"/>
                </mxCell>
                <mxCell id="21" value="InlineBlot" style="rounded=1;whiteSpace=wrap;html=1;" parent="5" vertex="1">
                    <mxGeometry x="240" y="23" width="90" height="30" as="geometry"/>
                </mxCell>
                <mxCell id="22" value="EmbedBlot" style="rounded=1;whiteSpace=wrap;html=1;" parent="5" vertex="1">
                    <mxGeometry x="630" y="23" width="90" height="30" as="geometry"/>
                </mxCell>
                <mxCell id="23" value="ScrollBlot" style="rounded=1;whiteSpace=wrap;html=1;" parent="5" vertex="1">
                    <mxGeometry x="350" y="23" width="90" height="30" as="geometry"/>
                </mxCell>
                <mxCell id="24" value="TextBlot" style="rounded=1;whiteSpace=wrap;html=1;" parent="5" vertex="1">
                    <mxGeometry x="510" y="23" width="90" height="30" as="geometry"/>
                </mxCell>
                <mxCell id="16" style="edgeStyle=none;html=1;entryX=0.5;entryY=1;entryDx=0;entryDy=0;" parent="5" source="7" target="17" edge="1">
                    <mxGeometry relative="1" as="geometry">
                        <mxPoint x="200" y="107" as="targetPoint"/>
                        <Array as="points">
                            <mxPoint x="225" y="124"/>
                            <mxPoint x="175" y="124"/>
                        </Array>
                    </mxGeometry>
                </mxCell>
                <mxCell id="20" style="edgeStyle=none;html=1;exitX=0.5;exitY=0;exitDx=0;exitDy=0;entryX=0.5;entryY=1;entryDx=0;entryDy=0;" parent="5" source="7" target="21" edge="1">
                    <mxGeometry relative="1" as="geometry">
                        <mxPoint x="280" y="107" as="targetPoint"/>
                        <mxPoint x="225" y="154" as="sourcePoint"/>
                        <Array as="points">
                            <mxPoint x="225" y="124"/>
                            <mxPoint x="285" y="124"/>
                        </Array>
                    </mxGeometry>
                </mxCell>
                <mxCell id="36" style="edgeStyle=none;html=1;entryX=0.5;entryY=1;entryDx=0;entryDy=0;" parent="2" source="11" target="28" edge="1">
                    <mxGeometry relative="1" as="geometry"/>
                </mxCell>
                <mxCell id="37" style="edgeStyle=none;html=1;entryX=0.5;entryY=1;entryDx=0;entryDy=0;" parent="2" source="17" target="29" edge="1">
                    <mxGeometry relative="1" as="geometry"/>
                </mxCell>
                <mxCell id="38" style="edgeStyle=none;html=1;entryX=0.5;entryY=1;entryDx=0;entryDy=0;" parent="2" source="21" target="33" edge="1">
                    <mxGeometry relative="1" as="geometry"/>
                </mxCell>
                <mxCell id="39" style="edgeStyle=none;html=1;" parent="2" source="23" target="34" edge="1">
                    <mxGeometry relative="1" as="geometry"/>
                </mxCell>
                <mxCell id="40" style="edgeStyle=none;html=1;entryX=0.5;entryY=1;entryDx=0;entryDy=0;" parent="2" source="24" target="35" edge="1">
                    <mxGeometry relative="1" as="geometry"/>
                </mxCell>
                <mxCell id="41" style="edgeStyle=none;html=1;entryX=0.5;entryY=1;entryDx=0;entryDy=0;" parent="2" source="22" target="30" edge="1">
                    <mxGeometry relative="1" as="geometry"/>
                </mxCell>
                <mxCell id="44" style="edgeStyle=none;html=1;entryX=0.5;entryY=1;entryDx=0;entryDy=0;exitX=0.5;exitY=0;exitDx=0;exitDy=0;" parent="2" source="22" target="31" edge="1">
                    <mxGeometry relative="1" as="geometry">
                        <Array as="points">
                            <mxPoint x="675" y="190"/>
                            <mxPoint x="775" y="190"/>
                        </Array>
                    </mxGeometry>
                </mxCell>
                <mxCell id="45" style="edgeStyle=none;html=1;entryX=0.5;entryY=1;entryDx=0;entryDy=0;exitX=0.5;exitY=0;exitDx=0;exitDy=0;" parent="2" source="22" target="32" edge="1">
                    <mxGeometry relative="1" as="geometry">
                        <Array as="points">
                            <mxPoint x="675" y="190"/>
                            <mxPoint x="875" y="190"/>
                        </Array>
                    </mxGeometry>
                </mxCell>
            </root>
        </mxGraphModel>
    </diagram>
</mxfile>